<svg width="140" height="140" viewBox="0 0 140 140" fill="none" xmlns="http://www.w3.org/2000/svg">
<rect width="140" height="140" rx="70" fill="#CDA993"/>
<path d="M87.6859 98.7373C87.2384 98.0503 86.3188 97.856 85.6318 98.3035C80.8839 101.396 75.3649 103.031 69.6718 103.031C53.5259 103.031 40.3901 89.8953 40.3901 73.7493C40.3901 67.8862 42.1163 62.2296 45.3823 57.3902C45.841 56.7107 45.6618 55.7881 44.9823 55.3295C44.3029 54.8708 43.3801 55.05 42.9214 55.7295C39.3234 61.0611 37.4213 67.2925 37.4213 73.7495C37.4213 82.3639 40.776 90.4626 46.8673 96.554C52.9586 102.645 61.0574 106 69.6718 106C75.9417 106 82.0208 104.199 87.2523 100.791C87.9394 100.344 88.1336 99.4242 87.6859 98.7373Z" fill="white"/>
<path d="M92.6727 94.236C92.0872 93.662 91.1475 93.6714 90.5733 94.2567L90.524 94.3067C89.9466 94.8886 89.9503 95.8285 90.5322 96.406C90.8218 96.6933 91.1997 96.8367 91.5778 96.8367C91.9594 96.8367 92.3414 96.6903 92.6315 96.3977L92.693 96.3354C93.2672 95.75 93.2581 94.8102 92.6727 94.236Z" fill="white"/>
<path d="M98.6852 54.3272C98.9751 54.6171 99.355 54.762 99.7348 54.762C100.115 54.762 100.495 54.617 100.784 54.3272L103.257 51.8546C105.019 50.0925 105.019 47.2254 103.257 45.4633L97.9579 40.1641C97.1042 39.3106 95.9693 38.8405 94.7623 38.8405C93.5551 38.8405 92.4203 39.3106 91.5668 40.1641L89.0941 42.6366C88.8158 42.9149 88.6593 43.2926 88.6593 43.6862C88.6593 44.0799 88.8158 44.4575 89.0941 44.7358L89.7961 45.4378L88.0175 47.2163C84.2459 44.5967 79.9807 42.83 75.4615 42.0155V39.5004H78.7273C79.5469 39.5004 80.2116 38.8359 80.2116 38.0161V31.4844C80.2116 30.6646 79.5469 30 78.7273 30H60.6172C59.7975 30 59.1328 30.6646 59.1328 31.4844V38.0159C59.1328 38.8357 59.7975 39.5003 60.6172 39.5003H63.883V42.0185C59.6344 42.7889 55.5801 44.4069 51.9397 46.8074C51.2553 47.2588 51.0663 48.1794 51.5175 48.864C51.9691 49.5484 52.8898 49.7374 53.5741 49.286C58.3541 46.1339 63.9208 44.4679 69.6723 44.4679C85.8183 44.4679 98.9541 57.6035 98.9541 73.7496C98.9541 79.225 97.4338 84.5643 94.5575 89.1896C94.1247 89.8858 94.338 90.8011 95.0343 91.2342C95.2783 91.3859 95.5491 91.4582 95.8167 91.4582C96.3128 91.4582 96.7974 91.2097 97.0787 90.7574C100.248 85.661 101.923 79.7798 101.923 73.7496C101.923 67.0977 99.921 60.7544 96.205 55.4043L97.9836 53.6257L98.6852 54.3272ZM72.4925 41.6222C71.5597 41.5419 70.6193 41.499 69.672 41.499C68.7266 41.4988 67.7858 41.5407 66.8515 41.6219V39.5004H72.4923V41.6222H72.4925ZM65.3673 36.5315H62.1016V32.9689H77.2427V36.5315H73.977H65.3673ZM94.3837 53.0263C93.7809 52.3101 93.1463 51.6147 92.4764 50.9448C91.8067 50.275 91.1112 49.6405 90.3949 49.0375L91.8951 47.5373L95.8838 51.5259L94.3837 53.0263ZM92.945 44.3885C92.9447 44.3882 92.9444 44.388 92.9441 44.3877L92.2431 43.6867L93.6661 42.2637C93.959 41.9709 94.3482 41.8097 94.7623 41.8097C95.1763 41.8097 95.5657 41.9709 95.8586 42.2639L101.158 47.5629C101.762 48.1674 101.762 49.1511 101.158 49.7557L99.7348 51.1784L99.0351 50.4787C99.0344 50.478 99.0338 50.4772 99.033 50.4765L92.945 44.3885Z" fill="white"/>
<path d="M69.6721 52.7097C68.8525 52.7097 68.1878 53.3743 68.1878 54.1941V57.4598C68.1878 58.2797 68.8523 58.9442 69.6721 58.9442C70.4918 58.9442 71.1565 58.2797 71.1565 57.4598V54.1941C71.1565 53.3743 70.4918 52.7097 69.6721 52.7097Z" fill="white"/>
<path d="M84.549 58.8722C84.2729 58.5961 83.8901 58.4373 83.4995 58.4373C83.1091 58.4373 82.7262 58.5961 82.4502 58.8722C82.1741 59.1483 82.0152 59.5313 82.0152 59.9217C82.0152 60.3136 82.174 60.695 82.4502 60.9711C82.7262 61.2472 83.1091 61.406 83.4995 61.406C83.8901 61.406 84.2729 61.2472 84.549 60.9711C84.8251 60.695 84.9839 60.3121 84.9839 59.9217C84.9839 59.5313 84.8252 59.1483 84.549 58.8722Z" fill="white"/>
<path d="M89.2273 72.265H85.9615C85.1418 72.265 84.4771 72.9295 84.4771 73.7494C84.4771 74.5692 85.1418 75.2337 85.9615 75.2337H89.2273C90.0469 75.2337 90.7117 74.5692 90.7117 73.7494C90.7117 72.9295 90.0469 72.265 89.2273 72.265Z" fill="white"/>
<path d="M84.549 86.5271C84.2729 86.251 83.8901 86.0922 83.4995 86.0922C83.1091 86.0922 82.7262 86.251 82.4502 86.5271C82.1741 86.8032 82.0152 87.1862 82.0152 87.5766C82.0152 87.9684 82.174 88.3514 82.4502 88.626C82.7262 88.9036 83.1091 89.0609 83.4995 89.0609C83.8901 89.0609 84.2729 88.9036 84.549 88.626C84.8251 88.3499 84.9839 87.9684 84.9839 87.5766C84.9839 87.1862 84.8252 86.8047 84.549 86.5271Z" fill="white"/>
<path d="M69.6721 88.5545C68.8525 88.5545 68.1878 89.219 68.1878 90.0388V93.3046C68.1878 94.1244 68.8525 94.789 69.6721 94.789C70.4918 94.789 71.1565 94.1244 71.1565 93.3046V90.0388C71.1565 89.2192 70.4918 88.5545 69.6721 88.5545Z" fill="white"/>
<path d="M56.8939 86.5271C56.6177 86.251 56.2349 86.0922 55.8445 86.0922C55.4541 86.0922 55.0711 86.251 54.7952 86.5271C54.5191 86.8032 54.3601 87.1862 54.3601 87.5766C54.3601 87.9684 54.5189 88.3499 54.7952 88.626C55.0711 88.9036 55.4541 89.0609 55.8445 89.0609C56.2349 89.0609 56.6178 88.9036 56.8939 88.626C57.17 88.3499 57.3289 87.9684 57.3289 87.5766C57.329 87.1862 57.1702 86.8032 56.8939 86.5271Z" fill="white"/>
<path d="M53.3825 72.265H50.1168C49.2971 72.265 48.6324 72.9295 48.6324 73.7494C48.6324 74.5692 49.2971 75.2337 50.1168 75.2337H53.3825C54.2022 75.2337 54.8669 74.5692 54.8669 73.7494C54.867 72.9295 54.2023 72.265 53.3825 72.265Z" fill="white"/>
<path d="M56.8939 58.8722C56.6178 58.5961 56.2349 58.4373 55.8445 58.4373C55.4541 58.4373 55.0711 58.5961 54.7952 58.8722C54.5191 59.1483 54.3601 59.5313 54.3601 59.9217C54.3601 60.3121 54.5189 60.695 54.7952 60.9711C55.0711 61.2472 55.4541 61.406 55.8445 61.406C56.2349 61.406 56.6178 61.2472 56.8939 60.9711C57.17 60.695 57.3289 60.3121 57.3289 59.9217C57.3289 59.5313 57.1702 59.1483 56.8939 58.8722Z" fill="white"/>
<path d="M81.2618 62.1595C80.7785 61.6764 80.028 61.5855 79.4435 61.9394L67.1903 69.3574C67.0577 69.4326 66.8722 69.5418 66.7466 69.6406C65.464 70.5566 64.6251 72.0564 64.6251 73.7492C64.6251 76.5324 66.8892 78.7964 69.6721 78.7964C71.3584 78.7964 72.8533 77.9642 73.7702 76.6897C73.8799 76.5539 73.9822 76.3757 74.0654 76.2288L81.482 63.9779C81.8358 63.3935 81.7448 62.6428 81.2618 62.1595ZM71.5079 74.7207L71.3853 74.9232C71.0103 75.4687 70.3826 75.8276 69.672 75.8276C68.5262 75.8276 67.5939 74.8954 67.5939 73.7495C67.5939 73.0388 67.9529 72.4107 68.4988 72.0358L68.7 71.9139C68.9902 71.7596 69.3208 71.6714 69.6719 71.6714C70.8178 71.6714 71.7501 72.6036 71.7501 73.7496C71.7501 74.1003 71.6619 74.4307 71.5079 74.7207ZM73.8275 70.8894C73.4779 70.3831 73.0386 69.9437 72.5321 69.5941L75.8148 67.6069L73.8275 70.8894Z" fill="white"/>
<path d="M69.6722 48.035C55.493 48.035 43.9574 59.5703 43.9574 73.7495C43.9574 87.9287 55.4929 99.4642 69.6722 99.4642C83.8515 99.4642 95.3868 87.9287 95.3868 73.7495C95.3868 59.5703 83.8513 48.035 69.6722 48.035ZM69.6722 96.4953C57.1301 96.4953 46.9262 86.2916 46.9262 73.7495C46.9262 61.2074 57.13 51.0037 69.6722 51.0037C82.2142 51.0037 92.4179 61.2074 92.4179 73.7495C92.4179 86.2916 82.2142 96.4953 69.6722 96.4953Z" fill="white"/>
<path d="M49.0576 50.8547C48.7814 50.5786 48.3986 50.4198 48.0082 50.4198C47.6178 50.4198 47.2348 50.5786 46.9589 50.8547C46.6828 51.1308 46.5238 51.5138 46.5238 51.9041C46.5238 52.296 46.6826 52.6775 46.9589 52.9536C47.2348 53.2297 47.6178 53.3885 48.0082 53.3885C48.3986 53.3885 48.7815 53.2297 49.0576 52.9536C49.3337 52.6775 49.4926 52.2945 49.4926 51.9041C49.4926 51.5139 49.3339 51.1309 49.0576 50.8547Z" fill="white"/>
</svg>
