<svg width="147" height="50" viewBox="0 0 147 50" fill="none" xmlns="http://www.w3.org/2000/svg">
<path d="M36.3014 0H13.6986C6.13309 0 0 6.13309 0 13.6986V36.3014C0 43.8669 6.13309 50 13.6986 50H36.3014C43.8669 50 50 43.8669 50 36.3014V13.6986C50 6.13309 43.8669 0 36.3014 0Z" fill="#BE9278"/>
<path d="M36.707 11.0729C36.1155 10.2753 34.9068 9.645 33.6014 9.42705C33.7993 8.54815 33.4294 7.60794 32.6047 7.13315C31.5986 6.55 30.3062 6.8952 29.7241 7.90486C29.6087 8.10397 28.8511 9.5837 27.7189 11.8092C25.7797 11.3922 23.8582 11.0081 22.27 10.8714C20.7597 10.7407 18.7167 10.7301 18.4104 12.1438C17.9934 14.0653 20.8032 16.4405 24.0808 18.9759C23.3527 20.4144 22.5928 21.9165 21.8223 23.4387C19.2893 22.2488 17.2229 21.5242 16.3086 22.4714C15.0303 23.7957 16.159 25.716 17.4632 27.9403C17.8355 28.5742 18.2184 29.2281 18.5601 29.8914C15.114 36.7058 12.2063 42.4657 12.2063 42.4657C12.2063 42.4657 15.405 37.5823 19.314 31.6067C19.9455 33.4164 19.9691 35.2401 18.3598 36.9037C18.2255 37.0427 18.229 37.2653 18.368 37.4008C18.3904 37.4209 18.4128 37.4386 18.4375 37.4515C18.5742 37.5292 18.7521 37.5092 18.8652 37.3914C20.8775 35.3097 20.6595 33.0299 19.7888 30.8786C21.02 28.996 22.3089 27.0249 23.5836 25.0727C23.6108 25.0869 23.6378 25.0999 23.6626 25.1128C27.3549 26.9377 30.841 28.6614 31.8401 26.8695C32.8273 25.1034 30.0811 22.7271 26.7847 20.1693C28.526 17.502 30.0976 15.0903 31.2722 13.2854C34.1586 13.8675 35.9977 14.0689 36.6092 13.3844C37.2407 12.6858 37.2749 11.8434 36.707 11.0729ZM18.9465 29.1232C18.6602 28.5954 18.3586 28.0782 18.0688 27.5858C16.9095 25.6088 15.9057 23.9017 16.8129 22.9615C17.4114 22.3419 19.4107 23.0947 21.503 24.0678C20.6465 25.7632 19.7841 27.4655 18.9465 29.1232ZM31.2275 26.5277C30.5536 27.7353 26.906 25.9316 23.9748 24.4849C23.9736 24.4849 23.9725 24.4837 23.9712 24.4837C24.7971 23.2195 25.6136 21.9695 26.3994 20.7655C29.2399 22.971 31.932 25.2671 31.2275 26.5277ZM24.4036 18.3397C21.5455 16.1212 18.7721 13.7826 19.0961 12.2958C19.2375 11.6514 20.2837 11.4075 22.2088 11.5736C23.7073 11.7044 25.5347 12.0637 27.3879 12.4608C26.5408 14.1266 25.5158 16.146 24.4036 18.3397ZM29.8903 12.2829C29.7807 12.2581 29.6735 12.2358 29.5686 12.2121C29.2623 11.6679 30.3627 8.90979 30.6384 8.43267C30.9282 7.92842 31.575 7.75527 32.0792 8.04623C32.5387 8.31014 32.7025 8.86034 32.5163 9.33747C31.9131 9.35397 31.3193 9.46473 30.7856 9.71329C30.6089 9.79459 30.5312 10.0032 30.6136 10.1799C30.6925 10.3554 30.9047 10.4332 31.0802 10.3507C31.3771 10.2129 31.7046 10.1375 32.038 10.0891C31.4501 10.8597 30.4451 12.0342 29.8903 12.2829ZM36.0897 12.9179C35.7103 13.3397 33.8005 13.0699 31.6834 12.6528C32.5894 11.2602 33.1808 10.3412 33.3375 10.0832C34.5074 10.2423 35.6208 10.789 36.1403 11.4923C36.5138 11.9966 36.4973 12.4619 36.0897 12.9179Z" fill="#101A31"/>
<path d="M77.408 31L73.28 17.56H73.184C73.2 17.88 73.224 18.36 73.256 19C73.288 19.64 73.32 20.328 73.352 21.064C73.384 21.784 73.4 22.44 73.4 23.032V31H70.16V13.864H75.104L79.16 26.968H79.232L83.528 13.864H88.472V31H85.088V22.888C85.088 22.344 85.096 21.72 85.112 21.016C85.144 20.312 85.168 19.648 85.184 19.024C85.216 18.384 85.24 17.904 85.256 17.584H85.16L80.744 31H77.408ZM97.8886 17.632C99.6486 17.632 100.993 18.016 101.921 18.784C102.865 19.536 103.337 20.696 103.337 22.264V31H100.841L100.145 29.224H100.049C99.4886 29.928 98.8966 30.44 98.2726 30.76C97.6486 31.08 96.7926 31.24 95.7046 31.24C94.5366 31.24 93.5686 30.904 92.8006 30.232C92.0326 29.544 91.6486 28.496 91.6486 27.088C91.6486 25.696 92.1366 24.672 93.1126 24.016C94.0886 23.344 95.5526 22.976 97.5046 22.912L99.7846 22.84V22.264C99.7846 21.576 99.6006 21.072 99.2326 20.752C98.8806 20.432 98.3846 20.272 97.7446 20.272C97.1046 20.272 96.4806 20.368 95.8726 20.56C95.2646 20.736 94.6566 20.96 94.0486 21.232L92.8726 18.808C93.5766 18.44 94.3526 18.152 95.2006 17.944C96.0646 17.736 96.9606 17.632 97.8886 17.632ZM98.3926 24.976C97.2406 25.008 96.4406 25.216 95.9926 25.6C95.5446 25.984 95.3206 26.488 95.3206 27.112C95.3206 27.656 95.4806 28.048 95.8006 28.288C96.1206 28.512 96.5366 28.624 97.0486 28.624C97.8166 28.624 98.4646 28.4 98.9926 27.952C99.5206 27.488 99.7846 26.84 99.7846 26.008V24.928L98.3926 24.976ZM114.293 17.656C115.765 17.656 116.957 18.232 117.869 19.384C118.781 20.52 119.237 22.2 119.237 24.424C119.237 26.648 118.765 28.344 117.821 29.512C116.877 30.664 115.669 31.24 114.197 31.24C113.253 31.24 112.501 31.072 111.941 30.736C111.381 30.384 110.925 29.992 110.573 29.56H110.381C110.509 30.232 110.573 30.872 110.573 31.48V36.76H106.997V17.896H109.901L110.405 19.6H110.573C110.925 19.072 111.397 18.616 111.989 18.232C112.581 17.848 113.349 17.656 114.293 17.656ZM113.141 20.512C112.213 20.512 111.557 20.8 111.173 21.376C110.805 21.952 110.605 22.832 110.573 24.016V24.4C110.573 25.664 110.757 26.64 111.125 27.328C111.509 28 112.197 28.336 113.189 28.336C114.005 28.336 114.605 28 114.989 27.328C115.389 26.64 115.589 25.656 115.589 24.376C115.589 21.8 114.773 20.512 113.141 20.512ZM131.233 17.896V20.584H125.761V31H122.185V17.896H131.233ZM145.315 24.424C145.315 26.6 144.739 28.28 143.587 29.464C142.451 30.648 140.899 31.24 138.931 31.24C137.715 31.24 136.627 30.976 135.667 30.448C134.723 29.92 133.979 29.152 133.435 28.144C132.891 27.12 132.619 25.88 132.619 24.424C132.619 22.248 133.187 20.576 134.323 19.408C135.459 18.24 137.019 17.656 139.003 17.656C140.235 17.656 141.323 17.92 142.267 18.448C143.211 18.976 143.955 19.744 144.499 20.752C145.043 21.744 145.315 22.968 145.315 24.424ZM136.267 24.424C136.267 25.72 136.475 26.704 136.891 27.376C137.323 28.032 138.019 28.36 138.979 28.36C139.923 28.36 140.603 28.032 141.019 27.376C141.451 26.704 141.667 25.72 141.667 24.424C141.667 23.128 141.451 22.16 141.019 21.52C140.603 20.864 139.915 20.536 138.955 20.536C138.011 20.536 137.323 20.864 136.891 21.52C136.475 22.16 136.267 23.128 136.267 24.424Z" fill="#BF947A"/>
</svg>
