<svg width="140" height="140" viewBox="0 0 140 140" fill="none" xmlns="http://www.w3.org/2000/svg">
<rect width="140" height="140" rx="70" fill="#CDA993"/>
<g clip-path="url(#clip0)">
<path d="M82.2544 38.3864C71.6948 33.7533 58.9745 35.5248 50.6024 42.7943C40.8721 51.243 39.8982 64.7144 48.3373 74.1301C48.6356 74.4628 49.0814 74.6371 49.5322 74.6371C49.8569 74.6371 50.1841 74.5467 50.4603 74.36C51.1197 73.9144 51.2383 73.0891 50.7252 72.5165C43.2216 64.1447 44.0888 52.1656 52.7422 44.6519C60.1878 38.1866 71.4993 36.611 80.8901 40.7311C81.6356 41.0587 82.5457 40.7985 82.9226 40.151C83.2993 39.5035 83.0004 38.7134 82.2544 38.3864Z" fill="white"/>
<path d="M94.3353 48.878C93.9583 48.2305 93.049 47.9707 92.3026 48.2976C91.5568 48.6246 91.2574 49.4146 91.6341 50.0624C96.3757 58.215 94.56 68.0354 87.1162 74.4988C78.4627 82.0123 64.6666 82.7651 55.025 76.2501C54.3654 75.8047 53.4151 75.9076 52.9019 76.48C52.3887 77.0526 52.5074 77.8778 53.1669 78.3234C58.1064 81.6613 64.0147 83.303 69.9043 83.303C76.9443 83.303 83.9578 80.9568 89.256 76.3564C97.6264 69.0888 99.6675 58.046 94.3353 48.878Z" fill="white"/>
<path d="M90.4264 43.8748C90.0516 43.5066 89.6578 43.1429 89.256 42.7941C88.8542 42.4452 88.4355 42.1033 88.0114 41.7779C87.3853 41.2973 86.4291 41.3487 85.8761 41.8924C85.3224 42.4358 85.3813 43.2659 86.0074 43.7463C86.3852 44.0362 86.7583 44.3409 87.1165 44.6517C87.4742 44.9627 87.8252 45.2865 88.1592 45.6145C88.458 45.9083 88.8746 46.0582 89.2934 46.0582C89.6494 46.0582 90.0068 45.9496 90.2946 45.7289C90.9208 45.2485 90.9797 44.4184 90.4264 43.8748Z" fill="white"/>
<path d="M105.638 61.9303C106.646 60.4932 106.646 58.7081 105.637 57.2714L103.647 54.4375C103.385 54.064 103.283 53.6205 103.361 53.1887L103.955 49.9158C104.257 48.2479 103.468 46.595 101.896 45.6017L98.8111 43.6535C98.4035 43.3958 98.1134 43.0199 97.9951 42.5944L97.0964 39.371C96.6407 37.7336 95.1854 36.4706 93.3002 36.0743L89.5877 35.2941C89.0976 35.1911 88.6643 34.9394 88.3678 34.5853L86.1238 31.9063C84.98 30.5411 83.0762 29.8555 81.1558 30.1182L77.3852 30.6334C76.8879 30.7013 76.377 30.6133 75.9472 30.3857L72.6829 28.6571C71.028 27.7809 68.9723 27.781 67.3174 28.6571L64.0534 30.3853C63.6236 30.613 63.113 30.7006 62.6152 30.6329L58.8457 30.1178C56.9253 29.8553 55.0212 30.5406 53.8775 31.9059L51.6339 34.5842C51.337 34.9383 50.9039 35.1899 50.4136 35.293L46.7013 36.073C44.816 36.4689 43.361 37.7321 42.9046 39.3693L42.0061 42.5929C41.8874 43.0184 41.5977 43.3947 41.1897 43.6521L38.1044 45.6005C36.532 46.5935 35.743 48.2463 36.0451 49.9142L36.6383 53.1884C36.7165 53.6203 36.6153 54.0638 36.3531 54.437L34.3624 57.2716C33.3537 58.7085 33.3537 60.4935 34.3626 61.9303L36.353 64.7643C36.6151 65.1378 36.7165 65.5813 36.6381 66.0131L36.0449 69.2861C35.7425 70.9539 36.5316 72.607 38.104 73.6001L41.1886 75.5482C41.5964 75.8057 41.8863 76.1819 42.0049 76.6075L42.9033 79.8309C43.3593 81.4682 44.8141 82.7312 46.6996 83.1275L48.2499 83.4533L37.7585 103.774C37.5355 104.205 37.5972 104.708 37.9203 105.089C38.2431 105.47 38.777 105.672 39.3185 105.615L47.7601 104.739L52.6231 110.793C52.9078 111.148 53.3722 111.356 53.8637 111.356C53.9107 111.356 53.9583 111.354 54.0056 111.35C54.5482 111.306 55.0216 111.011 55.2446 110.58L65.9593 89.8256L67.3169 90.5444C68.1444 90.9825 69.0719 91.2015 69.9997 91.2015C70.9275 91.2015 71.855 90.9823 72.6825 90.5444L74.0891 89.7997L84.8173 110.58C85.0402 111.011 85.5135 111.306 86.0563 111.35C86.1037 111.354 86.1512 111.356 86.1983 111.356C86.6897 111.356 87.1543 111.148 87.4388 110.794L92.3019 104.739L100.744 105.615C101.285 105.672 101.818 105.471 102.142 105.089C102.465 104.708 102.527 104.205 102.303 103.774L91.8066 83.4422L93.2988 83.1288C95.184 82.7328 96.6386 81.4696 97.095 79.8325L97.9937 76.6089C98.1127 76.1833 98.4021 75.8071 98.8098 75.5497L101.896 73.6013C103.468 72.6083 104.257 70.9555 103.955 69.2875L103.361 66.0134C103.283 65.5815 103.384 65.138 103.647 64.7648L105.638 61.9303ZM53.5766 107.388L49.7226 102.59C49.4032 102.192 48.8568 101.979 48.3022 102.037L41.6123 102.732L51.1709 84.2166C51.3457 84.3282 51.5024 84.4618 51.6316 84.6164L53.8756 87.2953C54.0888 87.5498 54.3284 87.7805 54.5896 87.9859L49.5584 97.7311C49.2168 98.3934 49.5577 99.1702 50.3201 99.4667C50.521 99.5451 50.7313 99.5819 50.9379 99.5819C51.5158 99.5819 52.0678 99.2931 52.3192 98.8058L57.3326 89.0952C57.8259 89.154 58.3338 89.1531 58.8436 89.0834L62.6143 88.5682C62.84 88.5375 63.0682 88.5403 63.2904 88.5721L53.5766 107.388ZM98.4501 102.731L91.76 102.037C91.2047 101.979 90.6589 102.192 90.3394 102.59L86.4855 107.388L76.7675 88.5648C76.9713 88.5408 77.1793 88.5408 77.385 88.5687L81.1543 89.0838C81.6847 89.1563 82.2133 89.154 82.7254 89.0878L87.7425 98.8058C87.9943 99.2938 88.546 99.5826 89.1238 99.5826C89.3307 99.5826 89.5408 99.5458 89.7416 99.4674C90.504 99.1709 90.8451 98.3934 90.5032 97.7311L85.4529 87.9491C85.6965 87.7528 85.9217 87.5354 86.1225 87.2958L88.3661 84.6175C88.5075 84.4486 88.6808 84.3039 88.8754 84.1868L98.4501 102.731ZM103.054 60.5624L101.063 63.3969C100.429 64.3011 100.183 65.3754 100.372 66.4215L100.966 69.6955C101.091 70.3841 100.765 71.0664 100.115 71.4763L97.0303 73.4249C96.0424 74.0488 95.3405 74.96 95.0532 75.9907L94.1544 79.2143C93.9659 79.8901 93.3656 80.4116 92.5871 80.5752L88.8747 81.3551C87.6874 81.6046 86.6378 82.2144 85.9192 83.0721L83.6756 85.7504C83.2035 86.3142 82.4179 86.5968 81.6246 86.4884L77.855 85.9733C76.65 85.8087 75.4127 86.0217 74.3711 86.5731L71.1073 88.3013C70.4242 88.6627 69.5752 88.6627 68.8925 88.3013L65.628 86.5729C64.8161 86.1429 63.8854 85.9189 62.9435 85.9189C62.6773 85.9189 62.4097 85.9368 62.1444 85.9731L58.3736 86.4882C57.5805 86.5967 56.7948 86.3136 56.3227 85.7501L54.0785 83.0712C53.36 82.2137 52.3105 81.6037 51.1235 81.3544L47.411 80.5742C46.6327 80.4106 46.0321 79.8892 45.8437 79.2133L44.9453 75.9899C44.6581 74.9591 43.9559 74.0475 42.968 73.4236L39.8836 71.4754C39.2344 71.0654 38.9088 70.3829 39.0337 69.6944L39.6269 66.4214C39.8165 65.375 39.5712 64.3009 38.9361 63.3964L36.9458 60.5622C36.5294 59.9691 36.5294 59.232 36.9458 58.6391L38.9366 55.8045C39.5714 54.9003 39.8168 53.8261 39.6273 52.7799L39.034 49.5059C38.9094 48.8174 39.2352 48.1351 39.8842 47.7252L42.9697 45.7766C43.9572 45.1527 44.6596 44.2414 44.9469 43.2107L45.8454 39.9872C46.0338 39.3113 46.6342 38.7899 47.4127 38.6263L51.1252 37.8463C52.3124 37.5968 53.3621 36.987 54.0804 36.1293L56.324 33.451C56.7961 32.8874 57.5818 32.6043 58.3751 32.7129L62.1446 33.228C63.3499 33.3929 64.5871 33.1796 65.6285 32.6282L68.8923 30.9C69.5754 30.5386 70.4244 30.5386 71.1071 30.9L74.3717 32.6284C75.413 33.18 76.6506 33.3931 77.8552 33.2283L81.626 32.7132C82.4188 32.6053 83.2048 32.8879 83.6769 33.4514L85.9211 36.1303C86.6396 36.9878 87.6891 37.5977 88.8761 37.8471L92.5885 38.6273C93.367 38.7909 93.9673 39.3122 94.1558 39.9881L95.0546 43.2115C95.3412 44.2424 96.0438 45.154 97.0317 45.7778L100.116 47.726C100.765 48.1359 101.091 48.8184 100.966 49.5069L100.373 52.7799C100.184 53.8263 100.429 54.9005 101.064 55.8048L103.054 58.6391C103.471 59.2323 103.471 59.9692 103.054 60.5624Z" fill="white"/>
<path d="M87.7032 55.5136C87.3698 54.6224 86.497 54.0002 85.4252 53.8898L76.3219 52.9525L72.4822 45.7248C72.0302 44.874 71.079 44.3453 69.9997 44.3453C68.9207 44.3453 67.9693 44.874 67.5172 45.7248L63.6776 52.9527L54.5743 53.8899C53.5025 54.0003 52.6295 54.6226 52.2963 55.5138C51.9629 56.4045 52.2479 57.3535 53.0399 57.9895L59.7703 63.3939L57.9838 71.201C57.7736 72.1202 58.1853 73.0332 59.0585 73.5838C59.5402 73.8876 60.0991 74.0415 60.6616 74.0415C61.119 74.0415 61.5784 73.9399 62.0004 73.7347L69.9996 69.8471L77.9987 73.7347C78.9405 74.1926 80.0676 74.1348 80.9407 73.584C81.814 73.0332 82.2257 72.1201 82.0153 71.201L80.2288 63.394L86.9592 57.9897C87.7515 57.3536 88.0365 56.4048 87.7032 55.5136ZM77.553 61.9644C77.1667 62.2746 76.9939 62.7368 77.0963 63.1848L78.9244 71.1739L70.7385 67.1954C70.509 67.0838 70.2543 67.028 69.9996 67.028C69.7448 67.028 69.4903 67.0837 69.2606 67.1954L61.0747 71.1739L62.9028 63.1848C63.0056 62.7367 62.8326 62.2746 62.4461 61.9644L55.5588 56.4339L64.875 55.4749C65.3974 55.4212 65.8502 55.1354 66.0707 54.7208L69.9997 47.3243L73.9288 54.7208C74.1493 55.1354 74.602 55.4212 75.1245 55.4749L84.4403 56.4339L77.553 61.9644Z" fill="white"/>
</g>
<defs>
<clipPath id="clip0">
<rect width="96" height="84" fill="white" transform="translate(22 28)"/>
</clipPath>
</defs>
</svg>
