<svg width="140" height="140" viewBox="0 0 140 140" fill="none" xmlns="http://www.w3.org/2000/svg">
<rect width="140" height="140" rx="70" fill="#CDA993"/>
<path d="M70 110.896C59.0485 110.896 48.7524 106.636 41.0087 98.9024C33.265 91.1683 29 80.8855 29 69.9479C29 59.0104 33.2648 48.7273 41.0087 40.9935C48.7526 33.2596 59.0485 29 70 29C77.3022 29 84.4721 30.9415 90.7343 34.6148C96.8115 38.1797 101.9 43.2784 105.448 49.3598C105.787 49.9402 105.59 50.6849 105.009 51.023C104.428 51.361 103.683 51.1651 103.344 50.5845C100.006 44.863 95.2187 40.066 89.5009 36.7121C83.6123 33.2583 76.869 31.4325 70 31.4325C59.6992 31.4325 50.0147 35.4388 42.7308 42.7134C35.447 49.988 31.4356 59.6602 31.4356 69.9479C31.4356 80.2357 35.447 89.9078 42.7308 97.1824C50.0147 104.457 59.6992 108.463 70 108.463C80.3008 108.463 89.9853 104.457 97.2694 97.1824C104.553 89.9078 108.564 80.2357 108.564 69.9479C108.564 64.7706 107.554 59.7471 105.56 55.0171C105.299 54.3981 105.59 53.6849 106.21 53.4242C106.83 53.1635 107.544 53.4544 107.804 54.0734C109.925 59.1038 111 64.4447 111 69.9479C111 80.8855 106.735 91.1685 98.9913 98.9024C91.2473 106.636 80.9515 110.896 70 110.896Z" fill="white"/>
<path d="M70 102.038C52.2831 102.038 37.8693 87.6423 37.8693 69.9479C37.8693 52.2536 52.2831 37.8581 70 37.8581C87.717 37.8581 102.131 52.2536 102.131 69.9479C102.131 87.6423 87.717 102.038 70 102.038ZM70 40.2906C53.6261 40.2906 40.3049 53.5949 40.3049 69.9479C40.3049 86.3009 53.6261 99.6052 70 99.6052C86.374 99.6052 99.6952 86.3009 99.6952 69.9479C99.6952 53.5949 86.374 40.2906 70 40.2906Z" fill="white"/>
<path d="M59.465 94.5981C57.0027 94.5981 54.9997 92.5976 54.9997 90.1384V88.0402H54.0056C51.5434 88.0402 49.5403 86.0397 49.5403 83.5806C49.5403 81.1214 51.5434 79.1209 54.0056 79.1209H54.9997V77.823H54.0056C51.5434 77.823 49.5403 75.8225 49.5403 73.3634C49.5403 70.9042 51.5434 68.9037 54.0056 68.9037H54.9997V65.0572C54.9997 64.3855 55.545 63.841 56.2175 63.841C56.8901 63.841 57.4353 64.3855 57.4353 65.0572V70.12C57.4353 70.7917 56.8901 71.3362 56.2175 71.3362H54.0056C52.8863 71.3362 51.9759 72.2455 51.9759 73.3634C51.9759 74.4812 52.8863 75.3905 54.0056 75.3905H56.2175C56.8901 75.3905 57.4353 75.9351 57.4353 76.6068V80.3371C57.4353 81.0089 56.8901 81.5535 56.2175 81.5535H54.0056C52.8863 81.5535 51.9759 82.4627 51.9759 83.5806C51.9759 84.6984 52.8863 85.6077 54.0056 85.6077H56.2175C56.8901 85.6077 57.4353 86.1523 57.4353 86.824V90.1384C57.4353 91.2563 58.3457 92.1655 59.465 92.1655C60.5843 92.1655 61.4947 91.2563 61.4947 90.1384V86.824C61.4947 86.1523 62.04 85.6077 62.7126 85.6077H74.0716C75.1908 85.6077 76.1013 84.6984 76.1013 83.5806C76.1013 82.4627 75.1908 81.5535 74.0716 81.5535H62.7126C62.04 81.5535 61.4947 81.0089 61.4947 80.3371V76.6068C61.4947 75.9351 62.04 75.3905 62.7126 75.3905H75.6527C83.0724 75.3905 89.1089 69.3617 89.1089 61.9513C89.1089 54.5409 83.0724 48.5122 75.6527 48.5122H59.465C58.3457 48.5122 57.4353 49.4214 57.4353 50.5393V60.1918C57.4353 60.8635 56.8901 61.408 56.2175 61.408C55.545 61.408 54.9997 60.8635 54.9997 60.1918V50.5393C54.9997 48.0801 57.0027 46.0796 59.465 46.0796H75.6527C84.4154 46.0796 91.5449 53.1996 91.5449 61.9513C91.5449 70.703 84.4154 77.823 75.6527 77.823H63.9304V79.1209H74.0716C76.5338 79.1209 78.5369 81.1214 78.5369 83.5806C78.5369 86.0397 76.5338 88.0402 74.0716 88.0402H63.9304V90.1384C63.9304 92.5976 61.9273 94.5981 59.465 94.5981ZM75.6527 71.3362H62.7126C62.04 71.3362 61.4947 70.7917 61.4947 70.12V53.7827C61.4947 53.1109 62.04 52.5664 62.7126 52.5664H75.6527C80.8341 52.5664 85.0495 56.7765 85.0495 61.9513C85.0495 67.1262 80.8341 71.3362 75.6527 71.3362ZM63.9304 68.9037H75.6527C79.4911 68.9037 82.6139 65.785 82.6139 61.9513C82.6139 58.1176 79.4911 54.9989 75.6527 54.9989H63.9304V68.9037Z" fill="white"/>
</svg>
